Coordinates
nRows=8
nColumns=38

# SIMM Motion File Header:
name Coordinates
datacolumns 38
datarows 8
otherdata 1
range 1.49100000000000010000 1.49800000000000000000

Units are S.I. units (second, meters, Newtons, ...)
Angles are in degrees.

endheader
time	pelvis_tilt	pelvis_list	pelvis_rotation	pelvis_tx	pelvis_ty	pelvis_tz	hip_flexion_r	hip_adduction_r	hip_rotation_r	knee_angle_r	ankle_angle_r	subtalar_angle_r	mtp_angle_r	hip_flexion_l	hip_adduction_l	hip_rotation_l	knee_angle_l	ankle_angle_l	subtalar_angle_l	mtp_angle_l	lumbar_extension	lumbar_bending	lumbar_rotation	arm_flex_r	arm_add_r	arm_rot_r	elbow_flex_r	pro_sup_r	wrist_flex_r	wrist_dev_r	arm_flex_l	arm_add_l	arm_rot_l	elbow_flex_l	pro_sup_l	wrist_flex_l	wrist_dev_l
      1.49100000000000010000	     -7.33083093615165640000	     -3.47529063902571610000	     -5.27312680105344270000	      1.08337108913618760000	      0.95463326882071020000	     -0.33099066711008718000	      2.79528379503817750000	     10.95622619307266800000	      7.39291150129677720000	    -35.43079849198402100000	     14.78836447667425900000	     -0.00000000000001096539	      0.00000000000002351441	     52.68960379137040200000	     -6.28230042539042620000	     -2.51908203535639340000	   -120.35989177221205000000	     -3.69689229117630140000	      0.00000000000001200887	      0.00000000000001268098	     -4.42107611467367880000	      7.21202120036408450000	     13.92064239327642600000	    -22.53559152839796900000	    -11.08752174225618800000	    -12.21870584509624900000	     90.81631246078615000000	     76.21144825057999100000	      0.00000000000000453770	      0.00000000000001022010	    -43.00571228885606000000	    -18.26160851305844800000	     -2.09603936591336560000	     90.40289137587835500000	     95.43587017807335800000	     -0.00000000000000068612	      0.00000000000000001471
      1.49200000000000000000	     -7.33733139968904440000	     -3.34961020516714080000	     -5.21077219766156310000	      1.08361519313473530000	      0.95523092401721543000	     -0.33103130519554019000	      2.40544062514744630000	     10.76620246881776000000	      7.41752729022239960000	    -35.09239335760018000000	     14.31901882935658900000	     -0.00000000000001156254	      0.00000000000002408079	     52.90031778736064900000	     -6.14974104406656070000	     -2.55625087347246360000	   -119.91019411965397000000	     -3.69331586611084140000	      0.00000000000001200166	      0.00000000000001294606	     -4.35255575646626980000	      7.05975000490437930000	     13.98931297402365800000	    -22.52541297568218000000	    -11.06064410094860100000	    -12.30779018017227400000	     91.16180870475923800000	     76.41166780187219800000	      0.00000000000000467389	      0.00000000000001041710	    -43.20673704429868400000	    -18.31831002668840100000	     -2.22350255590382550000	     90.60010000893267100000	     95.38331041407859300000	     -0.00000000000000065454	      0.00000000000000001462
      1.49300000000000010000	     -7.34181798461116310000	     -3.22215957829393980000	     -5.14648536329167690000	      1.08386704341815390000	      0.95584000752378195000	     -0.33107437149004249000	      2.01432916821156120000	     10.57384849219678300000	      7.43752490333431120000	    -34.75132732603546500000	     13.83600176851981600000	     -0.00000000000001214128	      0.00000000000002459381	     53.10307950629938000000	     -6.01461049837134710000	     -2.59555143745434690000	   -119.45322576737729000000	     -3.69181158031318320000	      0.00000000000001199218	      0.00000000000001322294	     -4.28564917120675480000	      6.90508382050133650000	     14.05476729385039600000	    -22.51641346118605500000	    -11.03356221619530200000	    -12.39415248933090500000	     91.50524407925591700000	     76.60764277955094300000	      0.00000000000000480945	      0.00000000000001060741	    -43.40823595400610900000	    -18.37552981684545000000	     -2.35003210956009840000	     90.79965816227455400000	     95.32837315863533000000	     -0.00000000000000062413	      0.00000000000000000865
      1.49400000000000000000	     -7.34444673323895710000	     -3.09291926150946050000	     -5.08024494102773080000	      1.08412647887089110000	      0.95645997761547474000	     -0.33111995385822346000	      1.62218731996987200000	     10.37920419237336000000	      7.45274251771797670000	    -34.40772096308021600000	     13.33949612649618500000	     -0.00000000000001267304	      0.00000000000002514859	     53.29809813352283500000	     -5.87685577330495960000	     -2.63692669380973000000	   -118.98909151544130000000	     -3.69230006265551940000	      0.00000000000001198068	      0.00000000000001349891	     -4.22022042958257960000	      6.74801952426375800000	     14.11692231846286400000	    -22.50855473344346800000	    -11.00630507263179300000	    -12.47769824110206100000	     91.84652839552887800000	     76.79919190289690800000	      0.00000000000000494373	      0.00000000000001080005	    -43.61024213418699700000	    -18.43318333869107000000	     -2.47566791644279330000	     91.00141194430297300000	     95.27122788372523100000	     -0.00000000000000060976	     -0.00000000000000000110
      1.49500000000000010000	     -7.34548061564469100000	     -2.96187761155674690000	     -5.01205415353757200000	      1.08439328461791810000	      0.95709013439565671000	     -0.33116811465330392000	      1.22937713232432340000	     10.18233064499433700000	      7.46304295621310490000	    -34.06173146682526500000	     12.82971421612482600000	     -0.00000000000001319689	      0.00000000000002574770	     53.48568122380294200000	     -5.73644986757297120000	     -2.68031668332523760000	   -118.51788061861400000000	     -3.69475470462104340000	      0.00000000000001197815	      0.00000000000001376146	     -4.15601853890848720000	      6.58857296961014690000	     14.17571707838237500000	    -22.50181758956905800000	    -10.97890109230636900000	    -12.55833808214854800000	     92.18557234350969100000	     76.98614764971216600000	      0.00000000000000507858	      0.00000000000001098413	    -43.81280349003155500000	    -18.49118084940095500000	     -2.60045731279208510000	     91.20520566770402100000	     95.21204588270882100000	     -0.00000000000000059720	     -0.00000000000000001081
      1.49600000000000000000	     -7.34514866547304560000	     -2.82902973867806520000	     -4.94192872711704730000	      1.08466724737608990000	      0.95772982611326851000	     -0.33121890444327012000	      0.83621980576929134000	      9.98329320302747190000	      7.46831467937992510000	    -33.71351487820305000000	     12.30688785885606900000	     -0.00000000000001373265	      0.00000000000002636641	     53.66609612315519900000	     -5.59338031303733190000	     -2.72566670801094140000	   -118.03967948187592000000	     -3.69914650437076140000	      0.00000000000001197108	      0.00000000000001403577	     -4.09283303280910890000	      6.42676323405553160000	     14.23110933262806000000	    -22.49618106019604700000	    -10.95138198375488300000	    -12.63598800185407700000	     92.52229268312834200000	     77.16835139585597900000	      0.00000000000000521310	      0.00000000000001116263	    -44.01596184422315600000	    -18.54942970226708400000	     -2.72445122238266620000	     91.41088891319678600000	     95.15099620495590200000	     -0.00000000000000056920	     -0.00000000000000002053
      1.49700000000000010000	     -7.34366181105949870000	     -2.69437861068299790000	     -4.86989122097475930000	      1.08494815245019340000	      0.95837842507854787000	     -0.33127236889632589000	      0.44301398647441431000	      9.78216397477083180000	      7.46846526329912660000	    -33.36322804159982500000	     11.77126895239092600000	     -0.00000000000001433112	      0.00000000000002697768	     53.83959060183342900000	     -5.44764520378046060000	     -2.77292049483620980000	   -117.55457367738406000000	     -3.70544649011055240000	      0.00000000000001194747	      0.00000000000001432672	     -4.03047531304919370000	      6.26261597533275260000	     14.28306863016647000000	    -22.49162498259871500000	    -10.92378194723961500000	    -12.71056951463368300000	     92.85661166011448100000	     77.34565423706395400000	      0.00000000000000534744	      0.00000000000001132803	    -44.21975526634502500000	    -18.60783478707905700000	     -2.84770403679559920000	     91.61831616491576800000	     95.08824582716759700000	     -0.00000000000000053373	     -0.00000000000000003102
      1.49800000000000000000	     -7.34122313126213120000	     -2.55793242225431870000	     -4.79597719824328990000	      1.08523577940791460000	      0.95903531438930667000	     -0.33132854095534148000	      0.05004929778895872400	      9.57902015717969140000	      7.46342701593669310000	    -33.01103464124129500000	     11.22313565791401800000	     -0.00000000000001494298	      0.00000000000002756749	     54.00640327150259200000	     -5.29925653083616590000	     -2.82202482038090130000	   -117.06264806930936000000	     -3.71362592750026500000	      0.00000000000001192724	      0.00000000000001462783	     -3.96876748358515390000	      6.09616140731575750000	     14.33158185693306800000	    -22.48813137699619700000	    -10.89613696926545700000	    -12.78200980703779200000	     93.18845602967826400000	     77.51791780334133400000	      0.00000000000000548004	      0.00000000000001149438	    -44.42421896898901000000	    -18.66629900118911300000	     -2.97027326647639670000	     91.82734616654063600000	     95.02395967866107200000	     -0.00000000000000049854	     -0.00000000000000003988
